<svg width="120" height="48" viewBox="0 0 220 48" fill="none" xmlns="http://www.w3.org/2000/svg">
<path d="M0.0454545 0.454544H12.1818L25 31.7273H25.5455L38.3636 0.454544H50.5V47H40.9545V16.7045H40.5682L28.5227 46.7727H22.0227L9.97727 16.5909H9.59091V47H0.0454545V0.454544ZM68.3807 47.6591C66.1534 47.6591 64.1686 47.2727 62.4261 46.5C60.6837 45.7121 59.3049 44.553 58.2898 43.0227C57.2898 41.4773 56.7898 39.553 56.7898 37.25C56.7898 35.3106 57.1458 33.6818 57.858 32.3636C58.5701 31.0455 59.5398 29.9848 60.767 29.1818C61.9943 28.3788 63.3883 27.7727 64.9489 27.3636C66.5246 26.9545 68.1761 26.6667 69.9034 26.5C71.9337 26.2879 73.5701 26.0909 74.8125 25.9091C76.0549 25.7121 76.9564 25.4242 77.517 25.0455C78.0777 24.6667 78.358 24.1061 78.358 23.3636V23.2273C78.358 21.7879 77.9034 20.6742 76.9943 19.8864C76.1004 19.0985 74.8277 18.7045 73.1761 18.7045C71.4337 18.7045 70.0473 19.0909 69.017 19.8636C67.9867 20.6212 67.3049 21.5758 66.9716 22.7273L58.017 22C58.4716 19.8788 59.3655 18.0455 60.6989 16.5C62.0322 14.9394 63.7519 13.7424 65.858 12.9091C67.9792 12.0606 70.4337 11.6364 73.2216 11.6364C75.161 11.6364 77.017 11.8636 78.7898 12.3182C80.5777 12.7727 82.161 13.4773 83.5398 14.4318C84.9337 15.3864 86.0322 16.6136 86.8352 18.1136C87.6383 19.5985 88.0398 21.3788 88.0398 23.4545V47H78.858V42.1591H78.5852C78.0246 43.25 77.2746 44.2121 76.3352 45.0455C75.3958 45.8636 74.267 46.5076 72.9489 46.9773C71.6307 47.4318 70.108 47.6591 68.3807 47.6591ZM71.1534 40.9773C72.5777 40.9773 73.8352 40.697 74.9261 40.1364C76.017 39.5606 76.8731 38.7879 77.4943 37.8182C78.1155 36.8485 78.4261 35.75 78.4261 34.5227V30.8182C78.1231 31.0152 77.7064 31.197 77.1761 31.3636C76.661 31.5152 76.0777 31.6591 75.4261 31.7955C74.7746 31.9167 74.1231 32.0303 73.4716 32.1364C72.8201 32.2273 72.2292 32.3106 71.6989 32.3864C70.5625 32.553 69.5701 32.8182 68.7216 33.1818C67.8731 33.5455 67.214 34.0379 66.7443 34.6591C66.2746 35.2652 66.0398 36.0227 66.0398 36.9318C66.0398 38.25 66.517 39.2576 67.4716 39.9545C68.4413 40.6364 69.6686 40.9773 71.1534 40.9773ZM105.233 26.8182V47H95.5511V12.0909H104.778V18.25H105.188C105.96 16.2197 107.256 14.6136 109.074 13.4318C110.892 12.2348 113.097 11.6364 115.688 11.6364C118.112 11.6364 120.225 12.1667 122.028 13.2273C123.831 14.2879 125.233 15.803 126.233 17.7727C127.233 19.7273 127.733 22.0606 127.733 24.7727V47H118.051V26.5C118.066 24.3636 117.521 22.697 116.415 21.5C115.309 20.2879 113.786 19.6818 111.847 19.6818C110.544 19.6818 109.392 19.9621 108.392 20.5227C107.407 21.0833 106.634 21.9015 106.074 22.9773C105.528 24.0379 105.248 25.3182 105.233 26.8182ZM164.409 22.0455L155.545 22.5909C155.394 21.8333 155.068 21.1515 154.568 20.5455C154.068 19.9242 153.409 19.4318 152.591 19.0682C151.788 18.6894 150.826 18.5 149.705 18.5C148.205 18.5 146.939 18.8182 145.909 19.4545C144.879 20.0758 144.364 20.9091 144.364 21.9545C144.364 22.7879 144.697 23.4924 145.364 24.0682C146.03 24.6439 147.174 25.1061 148.795 25.4545L155.114 26.7273C158.508 27.4242 161.038 28.5455 162.705 30.0909C164.371 31.6364 165.205 33.6667 165.205 36.1818C165.205 38.4697 164.53 40.4773 163.182 42.2045C161.848 43.9318 160.015 45.2803 157.682 46.25C155.364 47.2045 152.689 47.6818 149.659 47.6818C145.038 47.6818 141.356 46.7197 138.614 44.7955C135.886 42.8561 134.288 40.2197 133.818 36.8864L143.341 36.3864C143.629 37.7955 144.326 38.8712 145.432 39.6136C146.538 40.3409 147.955 40.7045 149.682 40.7045C151.379 40.7045 152.742 40.3788 153.773 39.7273C154.818 39.0606 155.348 38.2045 155.364 37.1591C155.348 36.2803 154.977 35.5606 154.25 35C153.523 34.4242 152.402 33.9848 150.886 33.6818L144.841 32.4773C141.432 31.7955 138.894 30.6136 137.227 28.9318C135.576 27.25 134.75 25.1061 134.75 22.5C134.75 20.2576 135.356 18.3258 136.568 16.7045C137.795 15.0833 139.515 13.8333 141.727 12.9545C143.955 12.0758 146.561 11.6364 149.545 11.6364C153.955 11.6364 157.424 12.5682 159.955 14.4318C162.5 16.2955 163.985 18.8333 164.409 22.0455ZM181.256 47.6591C179.028 47.6591 177.044 47.2727 175.301 46.5C173.559 45.7121 172.18 44.553 171.165 43.0227C170.165 41.4773 169.665 39.553 169.665 37.25C169.665 35.3106 170.021 33.6818 170.733 32.3636C171.445 31.0455 172.415 29.9848 173.642 29.1818C174.869 28.3788 176.263 27.7727 177.824 27.3636C179.4 26.9545 181.051 26.6667 182.778 26.5C184.809 26.2879 186.445 26.0909 187.688 25.9091C188.93 25.7121 189.831 25.4242 190.392 25.0455C190.953 24.6667 191.233 24.1061 191.233 23.3636V23.2273C191.233 21.7879 190.778 20.6742 189.869 19.8864C188.975 19.0985 187.703 18.7045 186.051 18.7045C184.309 18.7045 182.922 19.0909 181.892 19.8636C180.862 20.6212 180.18 21.5758 179.847 22.7273L170.892 22C171.347 19.8788 172.241 18.0455 173.574 16.5C174.907 14.9394 176.627 13.7424 178.733 12.9091C180.854 12.0606 183.309 11.6364 186.097 11.6364C188.036 11.6364 189.892 11.8636 191.665 12.3182C193.453 12.7727 195.036 13.4773 196.415 14.4318C197.809 15.3864 198.907 16.6136 199.71 18.1136C200.513 19.5985 200.915 21.3788 200.915 23.4545V47H191.733V42.1591H191.46C190.9 43.25 190.15 44.2121 189.21 45.0455C188.271 45.8636 187.142 46.5076 185.824 46.9773C184.506 47.4318 182.983 47.6591 181.256 47.6591ZM184.028 40.9773C185.453 40.9773 186.71 40.697 187.801 40.1364C188.892 39.5606 189.748 38.7879 190.369 37.8182C190.991 36.8485 191.301 35.75 191.301 34.5227V30.8182C190.998 31.0152 190.581 31.197 190.051 31.3636C189.536 31.5152 188.953 31.6591 188.301 31.7955C187.65 31.9167 186.998 32.0303 186.347 32.1364C185.695 32.2273 185.104 32.3106 184.574 32.3864C183.438 32.553 182.445 32.8182 181.597 33.1818C180.748 33.5455 180.089 34.0379 179.619 34.6591C179.15 35.2652 178.915 36.0227 178.915 36.9318C178.915 38.25 179.392 39.2576 180.347 39.9545C181.316 40.6364 182.544 40.9773 184.028 40.9773ZM214.085 47.5909C212.585 47.5909 211.297 47.0606 210.222 46C209.161 44.9242 208.631 43.6364 208.631 42.1364C208.631 40.6515 209.161 39.3788 210.222 38.3182C211.297 37.2576 212.585 36.7273 214.085 36.7273C215.54 36.7273 216.813 37.2576 217.903 38.3182C218.994 39.3788 219.54 40.6515 219.54 42.1364C219.54 43.1364 219.282 44.053 218.767 44.8864C218.267 45.7045 217.608 46.3636 216.79 46.8636C215.972 47.3485 215.07 47.5909 214.085 47.5909Z" fill="white"/>
</svg>
